<mxfile host="app.diagrams.net" agent="Mozilla/5.0 (Macintosh; Intel Mac OS X 10_15_7) AppleWebKit/537.36 (KHTML, like Gecko) Chrome/135.0.0.0 Safari/537.36" version="27.1.5">
  <diagram name="第 1 页" id="1yVaYk0rBe0aMYbrsP3v">
    <mxGraphModel dx="953" dy="556" grid="0" gridSize="10" guides="1" tooltips="1" connect="1" arrows="1" fold="1" page="1" pageScale="1" pageWidth="888" pageHeight="500" math="0" shadow="0">
      <root>
        <mxCell id="0" />
        <mxCell id="1" parent="0" />
        <mxCell id="ekbLbkOoTWBVTehAWl5b-20" value="" style="ellipse;whiteSpace=wrap;html=1;aspect=fixed;fillColor=#dae8fc;strokeColor=#6c8ebf;shadow=0;sketch=1;curveFitting=1;jiggle=2;" parent="1" vertex="1">
          <mxGeometry x="487" y="74" width="330" height="330" as="geometry" />
        </mxCell>
        <mxCell id="ekbLbkOoTWBVTehAWl5b-21" value="" style="rounded=0;whiteSpace=wrap;html=1;strokeColor=none;" parent="1" vertex="1">
          <mxGeometry x="276" y="218" width="180" height="70" as="geometry" />
        </mxCell>
        <mxCell id="ekbLbkOoTWBVTehAWl5b-26" style="edgeStyle=orthogonalEdgeStyle;rounded=0;orthogonalLoop=1;jettySize=auto;html=1;entryX=1;entryY=0.5;entryDx=0;entryDy=0;fillColor=#fff2cc;strokeColor=#d6b656;exitX=0.5;exitY=1;exitDx=0;exitDy=0;sketch=1;curveFitting=1;jiggle=2;" parent="1" source="ekbLbkOoTWBVTehAWl5b-4" target="ekbLbkOoTWBVTehAWl5b-30" edge="1">
          <mxGeometry relative="1" as="geometry">
            <mxPoint x="338.5" y="350" as="targetPoint" />
          </mxGeometry>
        </mxCell>
        <mxCell id="ekbLbkOoTWBVTehAWl5b-4" value="&lt;p class=&quot;p1&quot; style=&quot;margin: 0px; font-variant-numeric: normal; font-variant-east-asian: normal; font-variant-alternates: normal; font-size-adjust: none; font-kerning: auto; font-optical-sizing: auto; font-feature-settings: normal; font-variation-settings: normal; font-variant-position: normal; font-stretch: normal; line-height: normal;&quot;&gt;&lt;span style=&quot;background-color: initial;&quot;&gt;&lt;font color=&quot;#0e0e0e&quot; face=&quot;Comic Sans MS&quot;&gt;Social Interaction&lt;/font&gt;&lt;/span&gt;&lt;/p&gt;&lt;p class=&quot;p1&quot; style=&quot;margin: 0px; font-variant-numeric: normal; font-variant-east-asian: normal; font-variant-alternates: normal; font-size-adjust: none; font-kerning: auto; font-optical-sizing: auto; font-feature-settings: normal; font-variation-settings: normal; font-variant-position: normal; font-stretch: normal; line-height: normal;&quot;&gt;&lt;span style=&quot;color: rgb(14, 14, 14); font-family: &amp;quot;Comic Sans MS&amp;quot;; background-color: initial;&quot;&gt;Informal Care&lt;/span&gt;&lt;/p&gt;" style="whiteSpace=wrap;html=1;sketch=1;curveFitting=1;jiggle=2;fillColor=#fff2cc;strokeColor=#d6b656;fontSize=14;align=center;" parent="1" vertex="1">
          <mxGeometry x="276" y="215" width="180" height="70" as="geometry" />
        </mxCell>
        <mxCell id="ekbLbkOoTWBVTehAWl5b-25" style="edgeStyle=orthogonalEdgeStyle;rounded=0;orthogonalLoop=1;jettySize=auto;html=1;entryX=0;entryY=0.5;entryDx=0;entryDy=0;fillColor=#d5e8d4;strokeColor=#82b366;sketch=1;curveFitting=1;jiggle=2;" parent="1" source="ekbLbkOoTWBVTehAWl5b-3" target="ekbLbkOoTWBVTehAWl5b-30" edge="1">
          <mxGeometry relative="1" as="geometry">
            <mxPoint x="148.5" y="350" as="targetPoint" />
          </mxGeometry>
        </mxCell>
        <mxCell id="ekbLbkOoTWBVTehAWl5b-3" value="&lt;p style=&quot;margin: 0px; font-variant-numeric: normal; font-variant-east-asian: normal; font-variant-alternates: normal; font-size-adjust: none; font-kerning: auto; font-optical-sizing: auto; font-feature-settings: normal; font-variation-settings: normal; font-variant-position: normal; font-stretch: normal; line-height: normal; color: rgb(14, 14, 14);&quot; class=&quot;p1&quot;&gt;&lt;font face=&quot;Comic Sans MS&quot;&gt;Therapeutic Intervention&lt;/font&gt;&lt;/p&gt;&lt;p style=&quot;margin: 0px; font-variant-numeric: normal; font-variant-east-asian: normal; font-variant-alternates: normal; font-size-adjust: none; font-kerning: auto; font-optical-sizing: auto; font-feature-settings: normal; font-variation-settings: normal; font-variant-position: normal; font-stretch: normal; line-height: normal;&quot; class=&quot;p1&quot;&gt;&lt;font face=&quot;Comic Sans MS&quot;&gt;&lt;font color=&quot;#0e0e0e&quot;&gt;&lt;span&gt;Clinical Expertise&lt;/span&gt;&lt;/font&gt;&lt;/font&gt;&lt;/p&gt;" style="whiteSpace=wrap;html=1;sketch=1;curveFitting=1;jiggle=2;fillColor=#d5e8d4;strokeColor=#82b366;align=center;fontSize=14;" parent="1" vertex="1">
          <mxGeometry x="36" y="215" width="180" height="70" as="geometry" />
        </mxCell>
        <mxCell id="ekbLbkOoTWBVTehAWl5b-12" style="edgeStyle=orthogonalEdgeStyle;rounded=0;orthogonalLoop=1;jettySize=auto;html=1;entryX=0.5;entryY=0;entryDx=0;entryDy=0;exitX=0.5;exitY=0;exitDx=0;exitDy=0;sketch=1;curveFitting=1;jiggle=2;" parent="1" source="ekbLbkOoTWBVTehAWl5b-1" target="ekbLbkOoTWBVTehAWl5b-2" edge="1">
          <mxGeometry relative="1" as="geometry">
            <Array as="points">
              <mxPoint x="126" y="120" />
              <mxPoint x="366" y="120" />
            </Array>
          </mxGeometry>
        </mxCell>
        <mxCell id="ekbLbkOoTWBVTehAWl5b-1" value="&lt;font style=&quot;font-size: 19px;&quot; face=&quot;Comic Sans MS&quot;&gt;Counseling&lt;/font&gt;" style="rounded=1;whiteSpace=wrap;html=1;fillColor=#d5e8d4;strokeColor=#82b366;" parent="1" vertex="1">
          <mxGeometry x="66" y="170" width="120" height="60" as="geometry" />
        </mxCell>
        <mxCell id="ekbLbkOoTWBVTehAWl5b-2" value="&lt;font style=&quot;font-size: 19px;&quot; face=&quot;Comic Sans MS&quot;&gt;Emotional Support&lt;/font&gt;" style="rounded=1;whiteSpace=wrap;html=1;fillColor=#fff2cc;strokeColor=#d6b656;" parent="1" vertex="1">
          <mxGeometry x="306" y="170" width="120" height="60" as="geometry" />
        </mxCell>
        <mxCell id="ekbLbkOoTWBVTehAWl5b-13" value="&lt;p class=&quot;p1&quot; style=&quot;margin: 0px; font-variant-numeric: normal; font-variant-east-asian: normal; font-variant-alternates: normal; font-size-adjust: none; font-kerning: auto; font-optical-sizing: auto; font-feature-settings: normal; font-variation-settings: normal; font-variant-position: normal; font-stretch: normal; line-height: normal; color: rgb(14, 14, 14); text-align: start; text-wrap-mode: wrap;&quot;&gt;&lt;br&gt;&lt;/p&gt;" style="text;html=1;align=center;verticalAlign=middle;resizable=0;points=[];autosize=1;strokeColor=none;fillColor=none;fontSize=13;fontFamily=Comic Sans MS;fontStyle=0" parent="1" vertex="1">
          <mxGeometry x="374" y="50" width="20" height="30" as="geometry" />
        </mxCell>
        <mxCell id="ekbLbkOoTWBVTehAWl5b-19" value="&lt;p class=&quot;p1&quot; style=&quot;font-variant-numeric: normal; font-variant-east-asian: normal; font-variant-alternates: normal; font-size-adjust: none; font-kerning: auto; font-optical-sizing: auto; font-feature-settings: normal; font-variation-settings: normal; font-variant-position: normal; font-stretch: normal; font-size: 13px; line-height: normal; font-family: &amp;quot;Comic Sans MS&amp;quot;; margin: 0px; color: rgb(14, 14, 14);&quot;&gt;Theoretical Foundations&lt;/p&gt;&lt;p class=&quot;p1&quot; style=&quot;font-variant-numeric: normal; font-variant-east-asian: normal; font-variant-alternates: normal; font-size-adjust: none; font-kerning: auto; font-optical-sizing: auto; font-feature-settings: normal; font-variation-settings: normal; font-variant-position: normal; font-stretch: normal; font-size: 13px; line-height: normal; font-family: &amp;quot;Comic Sans MS&amp;quot;; margin: 0px; color: rgb(14, 14, 14);&quot;&gt;&lt;br&gt;&lt;/p&gt;&lt;p class=&quot;p1&quot; style=&quot;font-variant-numeric: normal; font-variant-east-asian: normal; font-variant-alternates: normal; font-size-adjust: none; font-kerning: auto; font-optical-sizing: auto; font-feature-settings: normal; font-variation-settings: normal; font-variant-position: normal; font-stretch: normal; font-size: 13px; line-height: normal; font-family: &amp;quot;Comic Sans MS&amp;quot;; margin: 0px; color: rgb(14, 14, 14);&quot;&gt;Practical Experience&lt;/p&gt;" style="rounded=0;whiteSpace=wrap;html=1;fillColor=none;strokeColor=none;align=center;" parent="1" vertex="1">
          <mxGeometry x="156" y="90" width="175" height="60" as="geometry" />
        </mxCell>
        <mxCell id="ekbLbkOoTWBVTehAWl5b-30" value="&lt;span style=&quot;font-family: &amp;quot;Comic Sans MS&amp;quot;; font-size: 18px;&quot;&gt;Mental Health&lt;/span&gt;" style="rounded=1;whiteSpace=wrap;html=1;fillColor=#dae8fc;strokeColor=#6c8ebf;" parent="1" vertex="1">
          <mxGeometry x="172.25" y="320" width="142.5" height="60" as="geometry" />
        </mxCell>
        <mxCell id="ekbLbkOoTWBVTehAWl5b-31" value="&lt;span style=&quot;font-family: &amp;quot;Comic Sans MS&amp;quot;; font-size: 18px;&quot;&gt;Interpretability&lt;/span&gt;" style="ellipse;whiteSpace=wrap;html=1;fillColor=#dae8fc;strokeColor=#6c8ebf;" parent="1" vertex="1">
          <mxGeometry x="559" y="110" width="190" height="50" as="geometry" />
        </mxCell>
        <mxCell id="ekbLbkOoTWBVTehAWl5b-32" value="&lt;font face=&quot;Comic Sans MS&quot;&gt;&lt;span style=&quot;font-size: 18px;&quot;&gt;Intention Alignment&lt;/span&gt;&lt;/font&gt;" style="ellipse;whiteSpace=wrap;html=1;fillColor=#dae8fc;strokeColor=#6c8ebf;" parent="1" vertex="1">
          <mxGeometry x="559" y="180" width="190" height="50" as="geometry" />
        </mxCell>
        <mxCell id="ekbLbkOoTWBVTehAWl5b-33" value="&lt;font face=&quot;Comic Sans MS&quot;&gt;&lt;span style=&quot;font-size: 18px;&quot;&gt;Evaluation&lt;/span&gt;&lt;/font&gt;" style="ellipse;whiteSpace=wrap;html=1;fillColor=#dae8fc;strokeColor=#6c8ebf;" parent="1" vertex="1">
          <mxGeometry x="559" y="320" width="190" height="50" as="geometry" />
        </mxCell>
        <mxCell id="ekbLbkOoTWBVTehAWl5b-34" value="&lt;font face=&quot;Comic Sans MS&quot;&gt;&lt;span style=&quot;font-size: 18px;&quot;&gt;Effectiveness&lt;/span&gt;&lt;/font&gt;" style="ellipse;whiteSpace=wrap;html=1;fillColor=#dae8fc;strokeColor=#6c8ebf;" parent="1" vertex="1">
          <mxGeometry x="559" y="250" width="190" height="50" as="geometry" />
        </mxCell>
        <mxCell id="ekbLbkOoTWBVTehAWl5b-35" value="&lt;font color=&quot;#97d077&quot;&gt;+&lt;/font&gt;" style="text;html=1;align=center;verticalAlign=middle;resizable=0;points=[];autosize=1;strokeColor=none;fillColor=none;" parent="1" vertex="1">
          <mxGeometry x="124" y="310" width="25" height="26" as="geometry" />
        </mxCell>
        <mxCell id="ekbLbkOoTWBVTehAWl5b-36" value="&lt;font color=&quot;#ffd966&quot;&gt;+&lt;/font&gt;" style="text;html=1;align=center;verticalAlign=middle;resizable=0;points=[];autosize=1;strokeColor=none;fillColor=none;" parent="1" vertex="1">
          <mxGeometry x="342" y="310" width="25" height="26" as="geometry" />
        </mxCell>
      </root>
    </mxGraphModel>
  </diagram>
</mxfile>
